<svg xmlns="http://www.w3.org/2000/svg" version="1.1" viewBox="-5.0 -10.0 110.0 135.0">
 <path d="m84.238 21.234c-0.25391-0.5625-0.8125-0.92188-1.4258-0.92188h-33.594c-0.61328 0-1.1719 0.35938-1.4258 0.92188l-3.5156 7.8125c-0.21875 0.48438-0.17578 1.043 0.11328 1.4883 0.28906 0.44531 0.78125 0.71484 1.3125 0.71484h1.9531v21.875c0.003906 0.070312 0.007812 0.14062 0.019531 0.21094l0.94141-0.35156 0.82031-0.85156v-0.003906c0.41797-0.42578 0.86719-0.82422 1.3438-1.1836v-19.695h31.25v20.312h-15.199c1.0234 0.89844 1.8984 1.9531 2.5938 3.125h14.168c0.86328 0 1.5625-0.69922 1.5625-1.5625v-21.875h1.1719c0.53125 0 1.0234-0.26953 1.3125-0.71484 0.28906-0.44531 0.33203-1.0039 0.11328-1.4883zm-36.117 6.8906 2.1094-4.6875h31.57l2.1094 4.6875z"/>
 <path d="m58.039 48.438h19.305c0.86328 0 1.5625-0.69922 1.5625-1.5625s-0.69922-1.5625-1.5625-1.5625h-21.875c-0.86328 0-1.5625 0.69922-1.5625 1.5625s0.69922 1.5625 1.5625 1.5625z"/>
 <path d="m71.082 59.375c0.097657 0.58203 0.15625 1.1719 0.18359 1.7656 0.49219-0.027344 1.0039-0.066406 1.5039-0.10156 3.6172-0.26562 8.2773-0.60547 13.875 1.4609h2.2773c-0.13281-1.0352-0.16406-2.082-0.097656-3.125z"/>
 <path d="m98.438 12.5h-10.156v-7.8125c-0.003906-2.5859-2.1016-4.6836-4.6875-4.6875h-67.188c-2.5859 0.0039062-4.6836 2.1016-4.6875 4.6875v7.8125h-10.156c-0.86328 0-1.5625 0.69922-1.5625 1.5625s0.69922 1.5625 1.5625 1.5625h4.6875v43.75h-3.125c-1.7266 0-3.125 1.3984-3.125 3.125v4.6875c0 0.86328 0.69922 1.5625 1.5625 1.5625h9.8594v-3.125h-8.2969v-3.125h8.2969v-3.125h-2.0469v-43.75h81.25v39.23c0.84766-0.80078 1.9609-1.2617 3.125-1.293v-37.938h4.6875c0.86328 0 1.5625-0.69922 1.5625-1.5625s-0.69922-1.5625-1.5625-1.5625zm-13.281 0h-70.312v-7.8125c0-0.86328 0.69922-1.5625 1.5625-1.5625h67.188c0.86328 0 1.5625 0.69922 1.5625 1.5625z"/>
 <path d="m0 94.551c0.0039062 3.0078 2.4414 5.4453 5.4492 5.4492h13.777c4.2969 0 7.7852-3.4805 7.7969-7.7773l-0.003907-9.3281 6.3555 0.43359 1.0547 11.57c0.27344 2.8203 2.5938 5 5.4258 5.1016 1.5469 0 3.0234-0.65625 4.0625-1.8047 1.0391-1.1484 1.543-2.6797 1.3906-4.2227l-1.543-15.387c-0.30078-2.9922-2.6953-5.3438-5.6914-5.5938l-4.0391-0.33594v-4.6406l9.0195 1.918c0.33203 0.070312 0.67187 0.10547 1.0078 0.10547 2.4102-0.003906 4.4414-1.7969 4.75-4.1875 0.30469-2.3906-1.207-4.6367-3.5391-5.25l-10.461-2.7578-0.66797-1.9414h0.003907c-0.85938 0.61719-1.8086 1.0977-2.8164 1.4258l0.79688 2.3203c0.16797 0.49219 0.57422 0.87109 1.0781 1.0039l11.27 2.9727v-0.003906c0.87891 0.23438 1.4141 1.1211 1.2031 2.0078-0.21094 0.88281-1.0859 1.4375-1.9766 1.25l-17.32-3.6836c-0.25-0.054687-0.45703-0.22656-0.55859-0.46094l-1.3594-3.25v-0.003906c-0.33594-0.79297-1.25-1.168-2.0469-0.83594s-1.1719 1.25-0.83594 2.043l1.3594 3.25c0.49609 1.1836 1.5391 2.0469 2.793 2.3164l5.1758 1.1016v6.7383c0 0.8125 0.62109 1.4922 1.4297 1.5586l5.4727 0.45312h0.003906c1.4961 0.125 2.6875 1.3008 2.8398 2.793l1.543 15.387c0.066406 0.66016-0.15234 1.3203-0.59766 1.8125-0.44922 0.49609-1.082 0.77734-1.7461 0.77734-1.2227-0.10938-2.1953-1.0703-2.3164-2.293l-1.0547-11.539c-0.13281-1.5273-1.3594-2.7266-2.8906-2.8281l-6.3594-0.4375c-0.070313-0.003906-0.14453-0.007813-0.21484-0.007813-0.82812 0-1.625 0.32812-2.207 0.91406-0.58594 0.58203-0.91406 1.3789-0.91406 2.207v9.332c-0.007813 2.5742-2.0977 4.6562-4.6719 4.6523h-13.777c-1.2812-0.003906-2.3203-1.043-2.3203-2.3242 0-1.2773 1.0391-2.3164 2.3203-2.3203h10.66c0.86328 0 1.5625-0.69922 1.5625-1.5625v-33.668c0.003906-1.3125 0.67188-2.5391 1.7812-3.2461-0.64453-0.82422-1.1641-1.7422-1.543-2.7188-2.0859 1.2656-3.3594 3.5273-3.3633 5.9648v32.105h-9.0977c-3.0078 0.003906-5.4453 2.4414-5.4492 5.4453z"/>
 <path d="m38.441 48.73c-0.14844 1.0859-0.46875 2.1445-0.94141 3.1367v3.4531l3.125 0.82422v-20.988c0-7.3359-5.9453-13.281-13.281-13.281s-13.281 5.9453-13.281 13.281v15.055c0.88281-0.97266 1.9414-1.7617 3.125-2.332v-12.723c0-5.6094 4.5469-10.156 10.156-10.156s10.156 4.5469 10.156 10.156v2.7188c1.2812 2.0977 1.7969 4.5742 1.4648 7.0078z"/>
 <path d="m29.848 36.141-0.91406-0.13281h0.003906c-1.8281-0.26562-3.6875 0.21484-5.1562 1.3359-1.5859 1.2031-2.625 2.9961-2.875 4.9727l-0.51953 3.8477-0.003907-0.003906c-0.60156 3.9531 2.0781 7.6562 6.0156 8.3242l0.91406 0.13281c1.8281 0.26562 3.6875-0.21484 5.1562-1.3359 1.5859-1.2031 2.625-2.9961 2.875-4.9727l0.51953-3.8477 0.003907 0.003906c0.60156-3.9531-2.0781-7.6562-6.0195-8.3242zm2.9219 7.9023-0.51953 3.8477c-0.14453 1.1484-0.74219 2.1914-1.6641 2.8945-0.80078 0.61719-1.8203 0.88281-2.8203 0.73828l-0.91406-0.13281c-2.2461-0.41797-3.7461-2.5547-3.3711-4.8086l0.51953-3.8477c0.14453-1.1484 0.74219-2.1914 1.6641-2.8945 0.80078-0.61719 1.8203-0.88281 2.8203-0.73828l0.91406 0.13281c2.2461 0.41797 3.7461 2.5547 3.3711 4.8086z"/>
 <path d="m90.984 68.176c-7.4688-4.7969-13.523-4.3516-17.988-4.0195-0.83203 0.0625-1.6172 0.11719-2.3438 0.14062l0.003906-0.003906c-0.64844 0.015625-1.2734-0.23828-1.7266-0.69922-0.49609-0.50391-0.77344-1.1836-0.77734-1.8906 0.007812-1.6445-0.35938-3.2734-1.0742-4.7539-0.011719-0.023438-0.015625-0.050781-0.027344-0.070313-0.015625-0.03125-0.035156-0.058594-0.050781-0.089844h0.003906c-1.332-2.5625-3.6758-4.4414-6.4609-5.1875-0.11719-0.023437-0.23438-0.039062-0.35547-0.039062h-2.1484c-2.3984 0.015625-4.6875 1-6.3477 2.7305l-1.3125 1.3633-4.7891 1.793 0.48047 0.125v0.003906c1.2344 0.32422 2.3711 0.9375 3.3164 1.7891l2.4258-0.91016v0.003907c0.21875-0.082032 0.41406-0.21484 0.57812-0.38281l1.5547-1.6211c1.0625-1.125 2.543-1.7656 4.0938-1.7695h0.52344c-0.5625 1.5469-1.1523 3.957-0.38281 6.0273 0.51562 1.3789 1.6055 2.4609 2.9844 2.9688 0.79297 0.33594 1.6406 0.51953 2.5 0.53516 0.61328 0.011719 1.2227-0.12109 1.7773-0.38672 0.28906 0.74219 0.72656 1.4141 1.2891 1.9766 1.0547 1.0664 2.5078 1.6484 4.0078 1.6094 0.80078-0.019531 1.6211-0.082031 2.4883-0.14453 4.418-0.32813 9.9141-0.73047 16.895 4.082v-0.003907c0.48047 0.33203 1.1055 0.36719 1.6172 0.097657 2.8477-1.582 4.3281-4.832 3.6562-8.0156-0.19922-0.91797-0.32031-1.8516-0.35938-2.793 0.94531 0.92969 1.543 2.1562 1.6914 3.4766 0.58984 3.7227-0.54297 6.4023-3.5547 8.4336-0.44531 0.29688-0.70312 0.80469-0.69141 1.3398l0.23828 8.4844c0.011719 0.31641 0.11328 0.62109 0.30078 0.87891l3.0117 4.125-1.4297 9.4961h-4.3398 0.003906c0.54297-0.58203 1.2734-0.95703 2.0625-1.0547 0.73047-0.14844 1.2539-0.78906 1.2539-1.5312v-4.5859c0-0.60156-0.34766-1.1523-0.89062-1.4102-0.0625-0.03125-6.3633-3.0859-6.6094-7.5938h0.003907c-0.019532-0.41406-0.20703-0.80859-0.51563-1.0859-0.30859-0.27734-0.71484-0.42188-1.1328-0.40234-0.41406 0.023437-0.80469 0.21094-1.082 0.51953-0.27734 0.3125-0.41797 0.72266-0.39062 1.1367v0.007812c-4.0469 1.3008-8.4062 1.2539-12.422-0.14062l0.011719-0.13672h-0.003907c0.066407-0.85938-0.57422-1.6094-1.4336-1.6797-0.85938-0.066407-1.6094 0.57422-1.6797 1.4336l-1.3086 16.5h-4.4375v-0.28516l2.7969-1.4805c0.5-0.26172 0.82031-0.77734 0.83203-1.3438 0.003907-0.21875 0.10547-5.4141-1.9883-9.1172-0.46875-0.82812-1.0664-1.7617-1.7031-2.75-1.9961-3.0977-4.4766-6.9492-4.7656-10.449-0.09375-1.1445-0.13281-2.0273-0.16016-2.7383-0.10938-2.5312-0.31641-3.9648-3.3594-3.9648-0.32031 0-0.66016 0.015625-1.0156 0.03125-0.12891 0.007813-0.25 0.011719-0.37109 0.015625v0.003907c0.070313 1.0625-0.082031 2.1328-0.44922 3.1328 0.35547 0 0.68359-0.015625 0.96484-0.027344 0.30469-0.015625 0.59766-0.027344 0.87109-0.027344h0.1875c0.019531 0.27734 0.035156 0.625 0.050781 0.97266 0.03125 0.69922 0.070313 1.6523 0.16797 2.8594 0.35156 4.2812 3.0664 8.5 5.25 11.887 0.60938 0.94922 1.1875 1.8438 1.6094 2.5938 1.2148 2.1523 1.5 5.1367 1.5664 6.6133l-2.7812 1.4727 0.003907-0.003906c-0.51172 0.26953-0.83203 0.80078-0.83203 1.3789v2.7891c0 0.86328 0.69922 1.5625 1.5625 1.5625h6c1.1094-0.007812 2.1289-0.60156 2.6836-1.5625h2.8203c1.6055 0 2.9531-1.2227 3.1094-2.8203l0.92578-10.652c0.37891 0.019532 0.75 0.03125 1.1172 0.03125 2.3555-0.003906 4.6953-0.35938 6.9453-1.0547 0.51953 1.1133 1.207 2.1367 2.0391 3.0391v3.7969c-1.1719 0.375-2.1836 1.1367-2.8711 2.1602-0.66406 1.0508-0.89844 2.3164-0.65625 3.5391 0.16797 0.70312 0.79687 1.2031 1.5195 1.2031h3.082c-0.019531 0.38281 0.007812 0.76562 0.085938 1.1406 0.16797 0.70312 0.79687 1.2031 1.5195 1.2031h7.5c0.77344 0 1.4297-0.56641 1.543-1.3281l1.7266-11.461c0.0625-0.40625-0.039062-0.82422-0.28125-1.1562l-3.1055-4.2539-0.19922-7.1719c3.5078-2.6797 4.9141-6.375 4.1836-11.004-0.93359-5.8945-5.4414-6.8828-5.6328-6.9219h-0.003906c-0.58984-0.12109-1.1953 0.10938-1.5586 0.58984-0.39844 0.52344-1.2188 2.2305-0.28516 6.7734v-0.003906c0.35937 1.5156-0.16406 3.1055-1.3516 4.1133zm-26.789-7.2383c-0.25 0.26172-0.96875 0.19922-1.8789-0.16016v0.003906c-0.55469-0.18359-0.99609-0.60547-1.2031-1.1484-0.44922-1.207 0.058594-3.0312 0.51172-4.1953 1.1055 0.66406 2.0078 1.625 2.5977 2.7734 0.39844 0.96094 0.39453 2.293-0.027344 2.7266zm7.4375 34.352h-2.2461l0.89844-11.328c0.75 0.24219 1.5117 0.44141 2.2812 0.59375zm16.531-0.75781h-2.5898 0.003906c0.54297-0.58203 1.2734-0.95703 2.0625-1.0547 0.73047-0.14844 1.2539-0.78906 1.2539-1.5312v-2.2852c0.59766 0.41406 1.1406 0.74609 1.5625 0.98438v2.4531c-0.86328 0.29297-1.6523 0.78125-2.293 1.4336z"/>
 <path d="m56.25 60.156c0 2.082-3.125 2.082-3.125 0s3.125-2.082 3.125 0"/>
<text x="0.0" y="117.5" font-size="5.0" font-weight="bold" font-family="Arbeit Regular, Helvetica, Arial-Unicode, Arial, Sans-serif" fill="#000000">Created by WEBTECHOPS LLP</text><text x="0.0" y="122.5" font-size="5.0" font-weight="bold" font-family="Arbeit Regular, Helvetica, Arial-Unicode, Arial, Sans-serif" fill="#000000">from Noun Project</text></svg>